<?xml version="1.0" encoding="UTF-8" standalone="no"?>
<!-- Created with Inkscape (http://www.inkscape.org/) -->

<svg
   xmlns:dc="http://purl.org/dc/elements/1.1/"
   xmlns:cc="http://creativecommons.org/ns#"
   xmlns:rdf="http://www.w3.org/1999/02/22-rdf-syntax-ns#"
   xmlns:svg="http://www.w3.org/2000/svg"
   xmlns="http://www.w3.org/2000/svg"
   xmlns:sodipodi="http://sodipodi.sourceforge.net/DTD/sodipodi-0.dtd"
   xmlns:inkscape="http://www.inkscape.org/namespaces/inkscape"
   width="207.32361"
   height="81.349144"
   id="svg3034"
   version="1.1"
   inkscape:version="0.48.3.1 r9886"
   sodipodi:docname="logo.svg">
  <defs
     id="defs3036">
    <filter
       id="filter3874"
       inkscape:label="Drop Shadow"
       color-interpolation-filters="sRGB">
      <feFlood
         id="feFlood3876"
         flood-opacity="0.5"
         flood-color="rgb(0,0,0)"
         result="flood" />
      <feComposite
         id="feComposite3878"
         in2="SourceGraphic"
         in="flood"
         operator="in"
         result="composite1" />
      <feGaussianBlur
         id="feGaussianBlur3880"
         stdDeviation="2"
         result="blur" />
      <feOffset
         id="feOffset3882"
         dx="4"
         dy="4"
         result="offset" />
      <feComposite
         id="feComposite3884"
         in2="offset"
         in="SourceGraphic"
         operator="over"
         result="composite2" />
    </filter>
  </defs>
  <sodipodi:namedview
     id="base"
     pagecolor="#ffffff"
     bordercolor="#666666"
     borderopacity="1.0"
     inkscape:pageopacity="0.0"
     inkscape:pageshadow="2"
     inkscape:zoom="1.979899"
     inkscape:cx="152.89817"
     inkscape:cy="-33.907033"
     inkscape:document-units="px"
     inkscape:current-layer="layer1"
     showgrid="false"
     showguides="true"
     inkscape:guide-bbox="true"
     inkscape:window-width="1920"
     inkscape:window-height="1039"
     inkscape:window-x="-2"
     inkscape:window-y="-3"
     inkscape:window-maximized="1"
     fit-margin-top="0"
     fit-margin-left="0"
     fit-margin-right="0"
     fit-margin-bottom="0">
    <sodipodi:guide
       orientation="0,1"
       position="132.23802,54.791062"
       id="guide3860" />
  </sodipodi:namedview>
  <metadata
     id="metadata3039">
    <rdf:RDF>
      <cc:Work
         rdf:about="">
        <dc:format>image/svg+xml</dc:format>
        <dc:type
           rdf:resource="http://purl.org/dc/dcmitype/StillImage" />
        <dc:title></dc:title>
      </cc:Work>
    </rdf:RDF>
  </metadata>
  <g
     inkscape:label="Layer 1"
     inkscape:groupmode="layer"
     id="layer1"
     transform="translate(-33.174463,-153.53738)">
    <g
       id="g3862"
       style="filter:url(#filter3874)"
       inkscape:export-filename="/home/ntriquenaux/Projets/project-war/images/logo.png"
       inkscape:export-xdpi="300"
       inkscape:export-ydpi="300">
      <text
         sodipodi:linespacing="125%"
         id="text3042"
         y="198.07648"
         x="48.57143"
         style="font-size:40px;font-style:normal;font-variant:normal;font-weight:normal;font-stretch:normal;line-height:125%;letter-spacing:0px;word-spacing:0px;fill:#000000;fill-opacity:1;stroke:none;font-family:Purisa;-inkscape-font-specification:Purisa"
         xml:space="preserve"><tspan
           y="198.07648"
           x="48.57143"
           id="tspan3044"
           sodipodi:role="line">Project</tspan></text>
      <text
         sodipodi:linespacing="125%"
         id="text3046"
         y="226.42743"
         x="147.51923"
         style="font-size:40px;font-style:normal;font-variant:normal;font-weight:normal;font-stretch:normal;line-height:125%;letter-spacing:0px;word-spacing:0px;fill:#000000;fill-opacity:1;stroke:none;font-family:Purisa;-inkscape-font-specification:Purisa"
         xml:space="preserve"><tspan
           y="226.42743"
           x="147.51923"
           id="tspan3048"
           sodipodi:role="line">War</tspan></text>
      <path
         inkscape:connector-curvature="0"
         id="path3050"
         d="m 145.25502,184.54599 c 0,-0.61212 2.22672,-3.62531 3.58772,-4.85489 1.28717,-1.16288 1.60472,-1.27777 3.53177,-1.27777 1.92248,0 2.26568,0.12331 3.72755,1.33928 1.90462,1.58426 2.35251,2.52707 1.49751,3.15226 -1.41599,1.0354 -12.34455,2.48827 -12.34455,1.64112 z"
         style="fill:#ffffff;fill-opacity:1;stroke:none" />
      <path
         inkscape:connector-curvature="0"
         id="path3052"
         d="m 145.25502,184.54599 c 0,-0.61212 2.22672,-3.62531 3.58772,-4.85489 1.28717,-1.16288 1.60472,-1.27777 3.53177,-1.27777 1.92248,0 2.26568,0.12331 3.72755,1.33928 1.90462,1.58426 2.35251,2.52707 1.49751,3.15226 -1.41599,1.0354 -12.34455,2.48827 -12.34455,1.64112 z"
         style="fill:#ffffff;fill-opacity:1;stroke:none" />
      <path
         inkscape:connector-curvature="0"
         id="path3834"
         d="m 144.95328,185.19649 c -0.28722,-0.12632 -0.36111,-0.3027 -0.28909,-0.69004 0.14823,-0.79712 1.48746,-2.75874 3.23652,-4.74071 1.31096,-1.4855 2.29486,-1.92164 4.54763,-2.01586 1.7417,-0.0729 2.33189,0.11599 3.62036,1.15836 0.91553,0.74065 2.14374,1.95689 2.45965,2.43563 0.27128,0.41114 0.3014,0.62528 0.14206,1.0101 -0.30747,0.7426 -0.93817,1.06847 -2.92885,1.51325 -3.8428,0.85862 -7.03429,1.33871 -9.34972,1.40649 -1.00101,0.0293 -1.22357,0.0173 -1.43856,-0.0772 z"
         style="fill:#000000;fill-opacity:1;stroke:none" />
      <path
         inkscape:connector-curvature="0"
         id="path3838"
         d="m 150.29423,198.35663 c -1.48845,-0.26178 -2.95256,-1.00891 -4.3188,-2.20387 -1.19269,-1.04317 -1.93035,-2.10416 -2.59577,-3.73353 -0.47338,-1.15917 -0.76645,-2.32877 -0.92208,-3.67988 -0.10327,-0.89664 -0.0866,-2.79184 0.031,-3.52275 0.33173,-2.06147 1.64768,-4.28818 3.81914,-6.46231 1.69163,-1.69371 3.12062,-2.4903 4.60925,-2.56944 1.12325,-0.0597 3.91933,0.24568 4.80374,0.52469 0.88363,0.27876 2.20293,1.22628 2.98712,2.14534 0.72757,0.85271 1.43346,2.00621 1.72156,2.81321 0.31389,0.87924 0.18577,1.83863 -0.32527,2.43566 -0.56576,0.66096 -1.83098,1.14977 -4.5152,1.74442 -3.09202,0.68499 -4.94117,0.90003 -10.00682,1.1637 l -0.88389,0.046 0.004,1.32582 c 0.003,1.15192 0.0215,1.39228 0.13976,1.83245 0.37964,1.41252 1.03351,2.49446 2.28284,3.77739 0.79566,0.81704 1.41538,1.29778 2.18624,1.69591 0.76785,0.39658 1.35736,0.55655 2.20609,0.59863 1.47987,0.0734 2.91509,-0.3716 4.67196,-1.44852 1.18258,-0.72488 1.6996,-1.12533 3.02803,-2.34531 1.93025,-1.77266 3.22971,-2.82342 3.6096,-2.91876 0.28295,-0.071 0.35762,0.01 0.32472,0.35243 -0.0831,0.86477 -1.49646,3.04498 -2.82571,4.35886 -2.06939,2.04546 -4.81149,3.5926 -7.10396,4.00818 -0.80912,0.14668 -2.269,0.17744 -2.92719,0.0617 z"
         style="fill:#000000;fill-opacity:1;stroke:none" />
      <path
         transform="matrix(0.99992461,0.01227881,-0.01227881,0.99992461,1.8579334,-1.0193729)"
         d="m 181.63806,186.21951 c 0,3.98774 -2.20478,7.22044 -4.9245,7.22044 -2.71972,0 -4.92449,-3.2327 -4.92449,-7.22044 0,-3.98774 2.20477,-7.22044 4.92449,-7.22044 2.71972,0 4.9245,3.2327 4.9245,7.22044 z"
         sodipodi:ry="7.2204413"
         sodipodi:rx="4.9244933"
         sodipodi:cy="186.21951"
         sodipodi:cx="176.71356"
         id="path3840"
         style="fill:#000000;fill-opacity:1;stroke:none"
         sodipodi:type="arc" />
      <path
         transform="matrix(0.99992461,0.01227881,-0.01227881,0.99992461,-22.744219,-1.0599465)"
         d="m 181.63806,186.21951 c 0,3.98774 -2.20478,7.22044 -4.9245,7.22044 -2.71972,0 -4.92449,-3.2327 -4.92449,-7.22044 0,-3.98774 2.20477,-7.22044 4.92449,-7.22044 2.71972,0 4.9245,3.2327 4.9245,7.22044 z"
         sodipodi:ry="7.2204413"
         sodipodi:rx="4.9244933"
         sodipodi:cy="186.21951"
         sodipodi:cx="176.71356"
         id="path3840-4"
         style="fill:#000000;fill-opacity:1;stroke:none"
         sodipodi:type="arc" />
    </g>
  </g>
</svg>
